<svg xmlns="http://www.w3.org/2000/svg" viewBox="0 0 128 128"><defs><linearGradient id="g" x1="20" y1="15" x2="105" y2="112" gradientUnits="userSpaceOnUse"><stop stop-color="#b8d8ff"/><stop offset=".48" stop-color="#6da5ff"/><stop offset="1" stop-color="#5369e8"/></linearGradient></defs><path fill="url(#g)" d="M38 103C20 103 8 91 8 75c0-15 11-27 26-29C40 29 55 18 73 18c23 0 42 17 45 40 8 5 13 13 13 23 0 13-11 22-25 22H38Z"/><path fill="#07101f" fill-opacity=".2" d="M32 88c19-3 37-15 52-36 2 18 12 30 28 37-21 5-52 5-80-1Z"/><path fill="none" stroke="#fff" stroke-opacity=".35" stroke-width="3" d="M38 101C21 101 11 90 11 75c0-14 10-24 25-26C42 32 56 21 73 21c22 0 39 16 42 38"/></svg>